<svg width="34" height="30" viewBox="0 0 34 30" fill="none" xmlns="http://www.w3.org/2000/svg">
<path fill-rule="evenodd" clip-rule="evenodd" d="M3.66634 0H30.333C32.1663 0 33.6663 1.5 33.6663 3.33333V26.6667C33.6663 28.5 32.1663 30 30.333 30H3.66634C1.83301 30 0.333008 28.5 0.333008 26.6667V3.33333C0.333008 1.5 1.83301 0 3.66634 0ZM6.99967 23.3333H11.9997C12.9163 23.3333 13.6663 22.5833 13.6663 21.6667C13.6663 20.75 12.9163 20 11.9997 20H6.99967C6.08301 20 5.33301 20.75 5.33301 21.6667C5.33301 22.5833 6.08301 23.3333 6.99967 23.3333ZM6.99967 16.6667H11.9997C12.9163 16.6667 13.6663 15.9167 13.6663 15C13.6663 14.0833 12.9163 13.3333 11.9997 13.3333H6.99967C6.08301 13.3333 5.33301 14.0833 5.33301 15C5.33301 15.9167 6.08301 16.6667 6.99967 16.6667ZM6.99967 10H11.9997C12.9163 10 13.6663 9.25 13.6663 8.33333C13.6663 7.41667 12.9163 6.66667 11.9997 6.66667H6.99967C6.08301 6.66667 5.33301 7.41667 5.33301 8.33333C5.33301 9.25 6.08301 10 6.99967 10ZM24.4998 21C25.3972 21 26.1248 20.2725 26.1248 19.375V16.125H29.3748C30.2722 16.125 30.9998 15.3975 30.9998 14.5C30.9998 13.6025 30.2722 12.875 29.3748 12.875H26.1248V9.625C26.1248 8.72754 25.3972 8 24.4998 8C23.6023 8 22.8748 8.72754 22.8748 9.625V12.875H19.6248C18.7273 12.875 17.9998 13.6025 17.9998 14.5C17.9998 15.3975 18.7273 16.125 19.6248 16.125H22.8748V19.375C22.8748 20.2725 23.6023 21 24.4998 21Z" fill="#6B6B6B"/>
</svg>
