<svg width="34" height="34" viewBox="0 0 34 34" fill="none" xmlns="http://www.w3.org/2000/svg">
<path d="M29.3833 18.6333C29.45 18.0999 29.5 17.5666 29.5 16.9999C29.5 16.4333 29.45 15.8999 29.3833 15.3666L32.9 12.6166C33.2166 12.3666 33.3 11.9166 33.1 11.5499L29.7666 5.78325C29.5666 5.41658 29.1166 5.28325 28.75 5.41659L24.6 7.08325C23.7333 6.41659 22.8 5.86659 21.7833 5.44992L21.15 1.03325C21.1 0.633252 20.75 0.333252 20.3333 0.333252H13.6666C13.25 0.333252 12.9 0.633252 12.85 1.03325L12.2166 5.44992C11.2 5.86659 10.2666 6.43325 9.39998 7.08325L5.24998 5.41659C4.86664 5.26659 4.43331 5.41658 4.23331 5.78325L0.899976 11.5499C0.68331 11.9166 0.78331 12.3666 1.09998 12.6166L4.61664 15.3666C4.54998 15.8999 4.49998 16.4499 4.49998 16.9999C4.49998 17.5499 4.54998 18.0999 4.61664 18.6333L1.09998 21.3833C0.78331 21.6333 0.699976 22.0833 0.899976 22.4499L4.23331 28.2166C4.43331 28.5833 4.88331 28.7166 5.24998 28.5833L9.39998 26.9166C10.2666 27.5833 11.2 28.1333 12.2166 28.5499L12.85 32.9666C12.9 33.3666 13.25 33.6666 13.6666 33.6666H20.3333C20.75 33.6666 21.1 33.3666 21.15 32.9666L21.7833 28.5499C22.8 28.1333 23.7333 27.5666 24.6 26.9166L28.75 28.5833C29.1333 28.7333 29.5666 28.5833 29.7666 28.2166L33.1 22.4499C33.3 22.0833 33.2166 21.6333 32.9 21.3833L29.3833 18.6333ZM17 22.8333C13.7833 22.8333 11.1666 20.2166 11.1666 16.9999C11.1666 13.7833 13.7833 11.1666 17 11.1666C20.2166 11.1666 22.8333 13.7833 22.8333 16.9999C22.8333 20.2166 20.2166 22.8333 17 22.8333Z" fill="#6B6B6B"/>
</svg>
