<svg width="34" height="34" viewBox="0 0 34 34" fill="none" xmlns="http://www.w3.org/2000/svg">
<path d="M16.9999 0.333252C7.79992 0.333252 0.333252 7.79992 0.333252 16.9999C0.333252 26.1999 7.79992 33.6666 16.9999 33.6666C26.1999 33.6666 33.6666 26.1999 33.6666 16.9999C33.6666 7.79992 26.1999 0.333252 16.9999 0.333252ZM7.83325 11.9999L13.0833 6.74992C13.4166 6.41658 13.9333 6.41658 14.2666 6.74992L19.4999 11.9999H15.3333V18.6666H11.9999V11.9999H7.83325ZM20.9166 27.2499C20.5833 27.5833 20.0666 27.5833 19.7333 27.2499L14.4999 21.9999H18.6666V15.3333H21.9999V21.9999H26.1666L20.9166 27.2499Z" fill="#6B6B6B"/>
</svg>
