<svg width="30" height="30" viewBox="0 0 30 30" fill="none" xmlns="http://www.w3.org/2000/svg">
<path d="M12.9833 22.15C13.6333 22.8 14.6833 22.8 15.3333 22.15L21.3167 16.1667C21.9667 15.5167 21.9667 14.4667 21.3167 13.8167L15.3333 7.83333C14.6833 7.18333 13.6333 7.18333 12.9833 7.83333C12.3333 8.48333 12.3333 9.53333 12.9833 10.1833L16.1167 13.3333H1.66667C0.75 13.3333 0 14.0833 0 15C0 15.9167 0.75 16.6667 1.66667 16.6667H16.1167L12.9833 19.8C12.3333 20.45 12.35 21.5167 12.9833 22.15ZM26.6667 0H3.33333C1.48333 0 0 1.5 0 3.33333V8.33333C0 9.25 0.75 10 1.66667 10C2.58333 10 3.33333 9.25 3.33333 8.33333V5C3.33333 4.08333 4.08333 3.33333 5 3.33333H25C25.9167 3.33333 26.6667 4.08333 26.6667 5V25C26.6667 25.9167 25.9167 26.6667 25 26.6667H5C4.08333 26.6667 3.33333 25.9167 3.33333 25V21.6667C3.33333 20.75 2.58333 20 1.66667 20C0.75 20 0 20.75 0 21.6667V26.6667C0 28.5 1.5 30 3.33333 30H26.6667C28.5 30 30 28.5 30 26.6667V3.33333C30 1.5 28.5 0 26.6667 0Z" fill="#6B6B6B"/>
</svg>
