<svg width="34" height="30" viewBox="0 0 34 30" fill="none" xmlns="http://www.w3.org/2000/svg">
<path fill-rule="evenodd" clip-rule="evenodd" d="M30.3333 0H3.66659C1.83325 0 0.333252 1.5 0.333252 3.33333V26.6667C0.333252 28.5 1.83325 30 3.66659 30H30.3333C32.1666 30 33.6666 28.5 33.6666 26.6667V3.33333C33.6666 1.5 32.1666 0 30.3333 0ZM11.9999 23.3333H6.99992C6.08325 23.3333 5.33325 22.5833 5.33325 21.6667C5.33325 20.75 6.08325 20 6.99992 20H11.9999C12.9166 20 13.6666 20.75 13.6666 21.6667C13.6666 22.5833 12.9166 23.3333 11.9999 23.3333ZM11.9999 16.6667H6.99992C6.08325 16.6667 5.33325 15.9167 5.33325 15C5.33325 14.0833 6.08325 13.3333 6.99992 13.3333H11.9999C12.9166 13.3333 13.6666 14.0833 13.6666 15C13.6666 15.9167 12.9166 16.6667 11.9999 16.6667ZM11.9999 10H6.99992C6.08325 10 5.33325 9.25 5.33325 8.33333C5.33325 7.41667 6.08325 6.66667 6.99992 6.66667H11.9999C12.9166 6.66667 13.6666 7.41667 13.6666 8.33333C13.6666 9.25 12.9166 10 11.9999 10ZM28.1666 13.5333L22.8833 18.8167C22.2333 19.4667 21.1666 19.4667 20.5166 18.8167L18.1666 16.45C17.5166 15.8 17.5166 14.75 18.1666 14.1C18.8166 13.45 19.8666 13.45 20.5166 14.1L21.6999 15.2833L25.8166 11.1667C26.4666 10.5167 27.5166 10.5167 28.1666 11.1667L28.1833 11.1833C28.8166 11.8333 28.8166 12.9 28.1666 13.5333Z" fill="#6B6B6B"/>
</svg>
