<svg width="165" height="89" viewBox="0 0 165 89" fill="none" xmlns="http://www.w3.org/2000/svg">
<path d="M34.1116 51.0519C34.3422 51.0834 34.5753 51.0834 34.8067 51.0996H47.8237C48.0552 51.0834 48.2883 51.0834 48.518 51.0519C48.9792 50.9879 49.4293 50.8618 49.8555 50.6767C52.072 49.7117 53.2844 47.206 52.8165 44.9501C52.4327 43.0992 50.9855 41.5706 49.1996 41.0693C48.9766 41.0062 48.7452 40.9747 48.518 40.9269C48.2866 40.9116 48.0552 40.8954 47.8237 40.8792H34.8067C34.1907 40.9218 34.0282 40.9014 33.4301 41.0693C32.9825 41.1946 32.5537 41.3813 32.1564 41.6235C30.35 42.7241 29.3894 44.9834 29.8132 47.0287C30.2462 49.1174 32.0458 50.7671 34.1116 51.0519" fill="#F2F2F2"/>
<path d="M4.39803 10.1719C4.62775 10.2043 4.86089 10.2043 5.09231 10.2205H18.1093C18.3407 10.2043 18.5739 10.2043 18.8044 10.1719C19.2647 10.1088 19.7148 9.9826 20.1411 9.79674C22.3584 8.8325 23.57 6.32686 23.1029 4.071C22.7192 2.2201 21.271 0.69062 19.486 0.189318C19.2622 0.127082 19.0308 0.094692 18.8044 0.0478015C18.573 0.031603 18.3407 0.016252 18.1093 5.3488e-05H5.09231C4.47716 0.0426812 4.31464 0.0213648 3.71565 0.189318C3.26811 0.315496 2.84014 0.502206 2.44195 0.744331C0.636464 1.84498 -0.324987 4.10424 0.0995817 6.14951C0.531808 8.23827 2.33134 9.88798 4.39803 10.1719Z" fill="#F2F2F2"/>
<path d="M15.8229 41.0693C15.5999 41.0062 15.3685 40.9747 15.1413 40.9269C14.9099 40.9116 14.6785 40.8954 14.447 40.8792H7.40975C6.79459 40.9218 6.63208 40.9014 6.03394 41.0693C5.58554 41.1946 5.15672 41.3813 4.76023 41.6235C2.95305 42.7241 1.99245 44.9834 2.41701 47.0287C2.84924 49.1174 4.64877 50.7671 6.71461 51.0519C6.94519 51.0834 7.17832 51.0834 7.40975 51.0996H14.447C14.6785 51.0834 14.9116 51.0834 15.1413 51.0519C15.6025 50.9879 16.0526 50.8618 16.4788 50.6767C18.6953 49.7117 19.9077 47.206 19.4398 44.9501C19.056 43.0992 17.6088 41.5706 15.8229 41.0693Z" fill="#F2F2F2"/>
<path d="M41.2758 78.9697C41.052 78.9075 40.8206 78.8751 40.5943 78.8282C40.362 78.812 40.1306 78.7966 39.8991 78.7804H32.8618C32.2467 78.8222 32.0842 78.8018 31.486 78.9697C31.0385 79.0959 30.6097 79.2817 30.2123 79.5247C28.406 80.6254 27.4445 82.8846 27.8691 84.9299C28.3022 87.0187 30.1017 88.6684 32.1676 88.9531C32.3973 88.9846 32.6304 88.9847 32.8618 89H39.8991C40.1306 88.9847 40.3637 88.9846 40.5943 88.9531C41.0546 88.8892 41.5047 88.763 41.9309 88.5771C44.1482 87.612 45.3598 85.1064 44.8927 82.8505C44.509 81.0005 43.0608 79.471 41.2758 78.9697" fill="#F2F2F2"/>
<path d="M157.046 61.3942C157.046 62.0506 156.697 62.656 156.13 62.9842L132.727 76.5236C131.505 77.2304 129.978 76.3471 129.978 74.9336V47.8556C129.978 47.2 130.328 46.5938 130.895 46.2656L137.198 42.6192C137.201 47.3159 137.207 54.0068 137.211 57.3608C137.212 58.2926 138.216 58.8732 139.025 58.4119L148.848 52.8055C149.456 52.4586 149.83 51.8132 149.83 51.1132V35.3111L154.297 32.7262C155.519 32.0203 157.046 32.9035 157.046 34.3162V61.3942ZM124.662 39.1186L100.097 24.9074C99.5806 24.6082 99.5806 23.8605 100.097 23.5612L104.796 20.8433C105.633 20.359 106.665 20.359 107.502 20.8433L132.184 35.1219C132.643 35.3879 132.643 36.0511 132.184 36.3163L127.341 39.1186C126.512 39.5978 125.49 39.5978 124.662 39.1186V39.1186ZM127.354 9.35853L152.036 23.6371C152.495 23.9023 152.495 24.5664 152.036 24.8315L147.194 27.6339C146.364 28.113 145.343 28.113 144.513 27.6339L119.95 13.4226C119.432 13.1234 119.432 12.3757 119.95 12.0765L124.648 9.35853C125.485 8.87342 126.517 8.87342 127.354 9.35853V9.35853ZM164.994 24.1427C164.993 24.1009 164.991 24.0591 164.987 24.0182C164.981 23.892 164.974 23.765 164.956 23.6405C164.837 22.8528 164.478 22.1076 163.939 21.5236C163.659 21.2227 163.517 21.1221 163.266 20.9541C163.207 20.9132 163.148 20.8723 163.086 20.8339C163.062 20.8177 163.037 20.8007 163.012 20.7836L127.99 0.522645C127.811 0.436537 127.639 0.336786 127.455 0.264319C126.961 0.0699364 126.819 0.0784744 126.299 3.94365e-05C126.12 3.94365e-05 125.941 0.00173289 125.764 0.00940588C125.718 0.00684822 125.673 0.00344965 125.627 3.94365e-05H39.8985C39.2833 0.0426672 39.1208 0.0213508 38.5235 0.189304C38.0751 0.315482 37.6463 0.502192 37.2489 0.744318C35.4435 1.84497 34.482 4.10422 34.9057 6.1495C35.3388 8.23826 37.1383 9.88797 39.2042 10.1719C39.4339 10.2043 39.667 10.2042 39.8985 10.2204H63.5841C63.819 10.2418 64.1993 10.2767 64.4341 10.2989C64.6085 10.3313 64.783 10.362 64.954 10.4097C66.7391 10.911 68.1863 12.4396 68.5709 14.2897C69.0389 16.5464 67.8264 19.0521 65.6091 20.0172C65.1829 20.203 64.7328 20.3283 64.2716 20.3923C64.0419 20.4238 63.8088 20.4238 63.5773 20.44H5.09231C4.47716 20.4818 4.31464 20.4613 3.71565 20.6293C3.26811 20.7546 2.84014 20.9413 2.44195 21.1835C0.636464 22.2841 -0.324987 24.5442 0.0995817 26.5895C0.531808 28.6774 2.33134 30.3271 4.39803 30.6119C4.62775 30.6443 4.86089 30.6442 5.09231 30.6596H75.5053C75.7392 30.6818 76.1196 30.7176 76.3544 30.7389C76.5288 30.7713 76.7032 30.8011 76.8743 30.8489C78.6602 31.3502 80.1075 32.8796 80.4912 34.7297C80.9591 36.9864 79.7467 39.4921 77.5294 40.4563C77.1031 40.6422 76.6539 40.7683 76.1927 40.8323C75.963 40.8638 75.7299 40.8638 75.4984 40.8792H65.0374C64.4222 40.9218 64.2597 40.9013 63.6616 41.0693C63.2132 41.1946 62.7844 41.3813 62.3879 41.6234C60.5807 42.7241 59.6201 44.9834 60.0438 47.0286C60.4769 49.1174 62.2764 50.7671 64.3422 51.0519C64.5728 51.0834 64.8051 51.0834 65.0374 51.0996H90.851C93.1185 51.0996 94.9572 49.2572 94.9572 46.9852V32.4764C94.9572 31.8813 95.6004 31.5087 96.1151 31.8063L114.184 42.2594C119.035 45.0669 122.025 50.2547 122.025 55.8679V65.0124C122.025 70.8354 115.734 74.4741 110.701 71.5626L95.8684 62.9629C95.3622 62.6696 94.9903 62.1802 94.8738 61.6056C94.49 59.7351 92.8352 58.3403 90.851 58.3403H26.3182C25.7031 58.383 25.5405 58.3617 24.9432 58.5305C24.4949 58.6558 24.066 58.8425 23.6687 59.0846C21.8632 60.1853 20.9018 62.4445 21.3255 64.4898C21.7594 66.5786 23.5581 68.2283 25.6248 68.513C25.8545 68.5445 26.0868 68.5446 26.3182 68.5608H69.8531C70.088 68.5821 70.4683 68.6179 70.7031 68.6392C70.8775 68.6724 71.052 68.7023 71.223 68.75C73.008 69.2513 74.4562 70.78 74.8399 72.6308C75.3079 74.8867 74.0954 77.3924 71.8781 78.3575C71.4519 78.5433 71.0018 78.6695 70.5415 78.7326C70.3117 78.7641 70.0786 78.7641 69.8472 78.7803H57.002C56.3869 78.8221 56.2244 78.8016 55.6262 78.9696C55.1787 79.0958 54.7499 79.2816 54.3525 79.5246C52.5462 80.6253 51.5856 82.8845 52.0093 84.9298C52.4424 87.0186 54.2419 88.6682 56.3078 88.953C56.5383 88.9845 56.7706 88.9845 57.002 88.9999H125.75C125.776 88.9982 125.803 88.9965 125.83 88.9956C125.891 88.9982 125.952 88.9999 126.013 88.9999C126.109 89.0007 126.203 88.9965 126.299 88.9897C126.404 88.982 126.508 88.9692 126.612 88.953C126.899 88.9078 127.183 88.8328 127.455 88.7254C127.553 88.687 127.648 88.6401 127.743 88.5924C127.754 88.5864 127.768 88.583 127.781 88.577C128.088 88.4432 128.375 88.2786 128.641 88.0902L163.012 68.207C163.175 68.0944 163.348 67.9947 163.503 67.871C164.124 67.3749 164.589 66.6911 164.824 65.9298C164.98 65.4217 164.961 65.2818 165 64.755V24.2347C164.998 24.2041 164.997 24.1734 164.994 24.1427" fill="url(#paint0_linear_206_1515)"/>
<defs>
<linearGradient id="paint0_linear_206_1515" x1="-63.0882" y1="89" x2="218.577" y2="-48.4741" gradientUnits="userSpaceOnUse">
<stop stop-color="#F3C729"/>
<stop offset="1" stop-color="#F3A229"/>
</linearGradient>
</defs>
</svg>
